# Blender v2.83.1 OBJ File: 'area.blend'
# www.blender.org
mtllib area.mtl
o Cube
v 33.085747 -9.000000 -33.085747
v 33.085747 -11.000000 -33.085747
v 33.085747 -9.000000 33.085747
v 33.085747 -11.000000 33.085747
v -33.085747 -9.000000 -33.085747
v -33.085747 -11.000000 -33.085747
v -33.085747 -9.000000 33.085747
v -33.085747 -11.000000 33.085747
vt 0.625000 0.500000
vt 0.875000 0.500000
vt 0.875000 0.750000
vt 0.625000 0.750000
vt 0.375000 0.750000
vt 0.625000 1.000000
vt 0.375000 1.000000
vt 0.375000 0.000000
vt 0.625000 0.000000
vt 0.625000 0.250000
vt 0.375000 0.250000
vt 0.125000 0.500000
vt 0.375000 0.500000
vt 0.125000 0.750000
vn 0.0000 1.0000 0.0000
vn 0.0000 0.0000 1.0000
vn -1.0000 0.0000 0.0000
vn 0.0000 -1.0000 0.0000
vn 1.0000 0.0000 0.0000
vn 0.0000 0.0000 -1.0000
g Cube_Cube_Material
usemtl Material
s off
f 1/1/1 5/2/1 7/3/1 3/4/1
f 4/5/2 3/4/2 7/6/2 8/7/2
f 8/8/3 7/9/3 5/10/3 6/11/3
f 6/12/4 2/13/4 4/5/4 8/14/4
f 2/13/5 1/1/5 3/4/5 4/5/5
f 6/11/6 5/10/6 1/1/6 2/13/6
o Cube.001
v -28.578487 -9.023962 -13.062106
v -28.578487 -9.023962 -24.561455
v -17.125235 -9.023962 -13.062106
v -17.125235 4.388244 -13.062106
v -17.125235 -9.023962 -24.561455
v -17.125235 4.388244 -24.561455
v -28.578487 -9.023962 -21.686619
v -28.578487 -9.023962 -18.811779
v -28.578487 -9.023962 -15.936943
v -19.988548 0.341559 -13.062106
v -22.851860 -4.308735 -13.062106
v -25.715174 -6.205979 -13.062106
v -25.715174 -6.205979 -24.561455
v -22.851860 -4.308735 -24.561455
v -19.988548 0.341559 -24.561455
v -17.125235 4.388244 -21.686619
v -17.125235 4.388244 -18.811779
v -17.125235 4.388244 -15.936943
v -25.715174 -6.205979 -15.936943
v -25.715174 -6.205979 -18.811779
v -25.715174 -6.205979 -21.686619
v -22.851860 -4.308735 -15.936943
v -22.851860 -4.308735 -18.811779
v -22.851860 -4.308735 -21.686619
v -19.988548 0.341559 -15.936943
v -19.988548 0.341559 -18.811779
v -19.988548 0.341559 -21.686619
v -17.125235 -9.023962 -15.936943
v -17.125235 -9.023962 -18.811779
v -17.125235 -9.023962 -21.686619
v -17.125235 2.264699 -24.561455
v -17.125235 -9.023962 -23.124037
v -17.125235 4.388244 -14.499524
v -17.125235 2.264699 -13.062106
v -17.125235 4.388244 -23.124037
v -17.125235 4.388244 -20.249199
v -17.125235 4.388244 -17.374363
v -17.125235 -9.023962 -14.499524
v -17.125235 -9.023962 -17.374363
v -17.125235 -9.023962 -20.249199
v 30.552008 -9.023962 -24.561449
v 30.552008 -9.023962 -13.062099
v 19.098761 -9.023962 -24.561449
v 19.098761 4.388244 -24.561449
v 19.098761 -9.023962 -13.062099
v 19.098761 4.388244 -13.062099
v 30.552008 -9.023962 -15.936937
v 30.552008 -9.023962 -18.811775
v 30.552008 -9.023962 -21.686611
v 21.962072 0.341559 -24.561449
v 24.825380 -4.308735 -24.561449
v 27.688696 -6.205979 -24.561449
v 27.688696 -6.205979 -13.062099
v 24.825380 -4.308735 -13.062099
v 21.962072 0.341559 -13.062099
v 19.098761 4.388244 -15.936937
v 19.098761 4.388244 -18.811775
v 19.098761 4.388244 -21.686611
v 27.688696 -6.205979 -21.686611
v 27.688696 -6.205979 -18.811775
v 27.688696 -6.205979 -15.936937
v 24.825380 -4.308735 -21.686611
v 24.825380 -4.308735 -18.811775
v 24.825380 -4.308735 -15.936937
v 21.962072 0.341559 -21.686611
v 21.962072 0.341559 -18.811775
v 21.962072 0.341559 -15.936937
v 19.098761 -9.023962 -21.686611
v 19.098761 -9.023962 -18.811775
v 19.098761 -9.023962 -15.936937
v 19.098761 2.264699 -13.062099
v 19.098761 -9.023962 -14.499518
v 19.098761 4.388244 -23.124031
v 19.098761 2.264699 -24.561449
v 19.098761 4.388244 -14.499518
v 19.098761 4.388244 -17.374355
v 19.098761 4.388244 -20.249193
v 19.098761 -9.023962 -23.124031
v 19.098761 -9.023962 -20.249193
v 19.098761 -9.023962 -17.374355
v -13.100347 4.388244 -13.062105
v -9.075459 4.388244 -13.062104
v -5.050570 4.388244 -13.062103
v -1.025681 4.388244 -13.062101
v 2.999208 4.388244 -13.062101
v 7.024097 4.388244 -13.062101
v 11.048986 4.388244 -13.062100
v 15.073870 4.388244 -13.062099
v -13.100347 4.388244 -24.561455
v -9.075459 4.388244 -24.561455
v -5.050570 4.388244 -24.561453
v -1.025681 4.388244 -24.561453
v 2.999208 4.388244 -24.561451
v 7.024097 4.388244 -24.561451
v 11.048986 4.388244 -24.561451
v 15.073870 4.388244 -24.561451
v -13.100347 2.264699 -13.062105
v -9.075459 2.264699 -13.062104
v -5.050570 2.264699 -13.062103
v -1.025681 2.264699 -13.062101
v 2.999208 2.264699 -13.062101
v 7.024097 2.264699 -13.062101
v 11.048986 2.264699 -13.062100
v 15.073870 2.264699 -13.062099
v -13.100347 2.264699 -24.561455
v -9.075459 2.264699 -24.561455
v -5.050570 2.264699 -24.561453
v -1.025681 2.264699 -24.561453
v 2.999208 2.264699 -24.561451
v 7.024097 2.264699 -24.561451
v 11.048986 2.264699 -24.561451
v 15.073870 2.264699 -24.561451
v 19.098761 4.388244 -23.842741
v 19.098761 4.388244 -15.218228
v 19.098761 4.388244 -18.093065
v 19.098761 4.388244 -20.967903
v 19.098761 4.388244 -22.405321
v 19.098761 4.388244 -13.780808
v 19.098761 4.388244 -16.655647
v 19.098761 4.388244 -19.530483
vt 0.761597 0.820272
vt 0.673930 0.757088
vt 0.677395 0.748958
vt 0.754938 0.734471
vt 0.958901 0.817929
vt 1.007395 0.912113
vt 0.753538 0.893116
vt 0.678428 0.883404
vt 0.581000 0.878802
vt 0.472356 0.874407
vt 0.432836 0.877057
vt 0.381866 0.878959
vt 0.305922 0.887307
vt 0.221832 0.894508
vt 0.158886 0.906843
vt 0.177751 0.967428
vt 0.442130 0.999975
vt 0.754894 0.959489
vt 0.933944 0.931497
vt 0.804576 0.901629
vt 0.978956 0.891996
vt 0.764436 0.873221
vt 0.954879 0.868239
vt 0.039092 0.929386
vt 0.374752 0.927287
vt 0.611657 0.914565
vt 0.038974 0.887913
vt 0.326211 0.885707
vt 0.557506 0.879677
vt 0.051367 0.821605
vt 0.316997 0.823026
vt 0.548511 0.822215
vt 0.370185 0.727724
vt 0.408458 0.747035
vt 0.403422 0.757086
vt 0.373806 0.758364
vt 0.536608 0.760897
vt 0.703091 0.757717
vt 0.427568 0.729915
vt 0.671224 0.738051
vt 0.396348 0.150894
vt 0.499379 0.192853
vt 0.504753 0.193371
vt 0.506351 0.194598
vt 0.491418 0.196998
vt 0.464739 0.199594
vt 0.295154 0.156743
vt 0.071485 0.087013
vt 0.483897 0.167001
vt 0.492319 0.165718
vt 0.539778 0.163962
vt 0.598259 0.164255
vt 0.595178 0.162353
vt 0.601605 0.163442
vt 0.618056 0.162977
vt 0.634746 0.165991
vt 0.598082 0.168820
vt 0.866104 0.034177
vt 0.602379 0.000025
vt 0.305300 0.040044
vt 0.144040 0.067713
vt 0.277046 0.094186
vt 0.104444 0.105832
vt 0.348976 0.117164
vt 0.200199 0.127717
vt 1.007395 0.070390
vt 0.672110 0.069531
vt 0.452572 0.080894
vt 0.923034 0.109722
vt 0.691375 0.105469
vt 0.507206 0.109514
vt 0.849386 0.150954
vt 0.686010 0.147405
vt 0.530343 0.148203
vt 0.708210 0.200695
vt 0.668814 0.197176
vt 0.643839 0.194352
vt 0.634266 0.192987
vt 0.629708 0.192520
vt 0.628724 0.193078
vt 0.632234 0.194693
vt 0.633956 0.198579
vt 0.548677 0.198108
vt 0.463825 0.198385
vt 0.479248 0.194669
vt 0.491284 0.193257
vt 0.479222 0.209783
vt 0.608519 0.212871
vt 0.445622 0.660510
vt 0.623786 0.674839
vt 0.654982 0.677363
vt 0.436035 0.272450
vt 0.553074 0.261310
vt 0.445935 0.266975
vt 0.443824 0.337899
vt 0.448716 0.397516
vt 0.447378 0.456015
vt 0.446644 0.499702
vt 0.422202 0.570364
vt 0.430765 0.629566
vt 0.437017 0.674868
vt 0.602644 0.605265
vt 0.623969 0.548868
vt 0.651011 0.502769
vt 0.625541 0.432053
vt 0.630252 0.374671
vt 0.619347 0.317299
vt 0.408176 0.599979
vt 0.590019 0.622075
vt 0.421698 0.542320
vt 0.585496 0.563347
vt 0.485086 0.487798
vt 0.655443 0.501593
vt 0.442230 0.426633
vt 0.617336 0.448694
vt 0.453145 0.368498
vt 0.625327 0.390695
vt 0.465881 0.313940
vt 0.627191 0.330346
vt 0.664039 0.262656
vn -0.8163 0.5776 0.0000
vn 0.0000 -1.0000 0.0000
vn -0.7014 0.7127 0.0000
vn -0.5524 0.8336 0.0000
vn -0.8515 0.5243 0.0000
vn 1.0000 0.0000 0.0000
vn 0.8163 0.5776 0.0000
vn 0.7014 0.7127 0.0000
vn 0.5524 0.8336 0.0000
vn 0.8515 0.5243 0.0000
vn 0.0000 1.0000 0.0000
vn -0.0000 0.0000 1.0000
vn 0.0000 0.0000 -1.0000
g Cube.001_Cube.001_Material.001
usemtl Material.001
s off
f 35/15/7 24/16/7 43/17/7 14/18/7 23/19/7
f 10/20/8 13/21/8 40/22/8 38/23/8 48/24/8 37/25/8 47/26/8 36/27/8 46/28/8 11/29/8 9/30/8 17/31/8 16/32/8 15/33/8
f 15/33/9 29/34/9 21/35/9 10/20/9
f 29/34/10 32/36/10 22/37/10 21/35/10
f 32/36/11 35/15/11 23/19/11 22/37/11
f 9/30/9 20/38/9 27/39/9 17/31/9
f 17/31/9 27/39/9 28/40/9 16/32/9
f 16/32/9 28/40/9 29/34/9 15/33/9
f 20/38/10 19/41/10 30/42/10 27/39/10
f 27/39/10 30/42/10 31/43/10 28/40/10
f 28/40/10 31/43/10 32/36/10 29/34/10
f 19/41/11 18/44/11 33/45/11 30/42/11
f 30/42/11 33/45/11 34/46/11 31/43/11
f 31/43/11 34/46/11 35/15/11 32/36/11
f 18/44/7 12/47/7 41/48/7 26/49/7 33/45/7
f 33/45/7 26/49/7 45/50/7 25/51/7 34/46/7
f 34/46/7 25/51/7 44/52/7 24/16/7 35/15/7
f 13/21/12 39/53/12 14/18/12 43/17/12 24/16/12 44/52/12 25/51/12 45/50/12 26/49/12 41/48/12 12/47/12 42/54/12 11/29/12 46/28/12 36/27/12 47/26/12 37/25/12 48/24/12 38/23/12 40/22/12
f 75/55/13 64/56/13 122/57/13 83/58/13 126/59/13 54/60/13 63/61/13
f 50/62/8 53/63/8 80/64/8 78/65/8 88/66/8 77/67/8 87/68/8 76/69/8 86/70/8 51/71/8 49/72/8 57/73/8 56/74/8 55/75/8
f 55/75/14 69/76/14 61/77/14 50/62/14
f 69/76/15 72/78/15 62/79/15 61/77/15
f 72/78/16 75/55/16 63/61/16 62/79/16
f 49/72/14 60/80/14 67/81/14 57/73/14
f 57/73/14 67/81/14 68/82/14 56/74/14
f 56/74/14 68/82/14 69/76/14 55/75/14
f 60/80/15 59/83/15 70/84/15 67/81/15
f 67/81/15 70/84/15 71/85/15 68/82/15
f 68/82/15 71/85/15 72/78/15 69/76/15
f 59/83/16 58/86/16 73/87/16 70/84/16
f 70/84/16 73/87/16 74/88/16 71/85/16
f 71/85/16 74/88/16 75/55/16 72/78/16
f 58/86/13 52/89/13 121/90/13 81/91/13 125/92/13 66/93/13 73/87/13
f 73/87/13 66/93/13 124/94/13 85/95/13 128/96/13 65/97/13 74/88/13
f 74/88/13 65/97/13 123/98/13 84/99/13 127/100/13 64/56/13 75/55/13
f 53/63/12 80/64/12 78/65/12 88/66/12 77/67/12 87/68/12 76/69/12 86/70/12 51/71/12 82/101/12 52/89/12 121/90/12 81/91/12 125/92/12 66/93/12 124/94/12 85/95/12 128/96/12 65/97/12 123/98/12 84/99/12 127/100/12 64/56/12 122/57/12 83/58/12 126/59/12 54/60/12 79/102/12
f 89/103/17 97/104/17 14/18/17 12/47/17
f 12/47/18 42/54/18 105/105/18 89/103/18
f 79/102/18 54/60/18 96/106/18 112/107/18
f 79/102/17 82/101/17 120/108/17 119/109/17 118/110/17 117/111/17 116/112/17 115/113/17 114/114/17 113/115/17 39/53/17 42/54/17 105/105/17 106/116/17 107/117/17 108/118/17 109/119/17 110/120/17 111/121/17 112/107/17
f 90/122/17 98/123/17 97/104/17 89/103/17
f 91/124/17 99/125/17 98/123/17 90/122/17
f 92/126/17 100/127/17 99/125/17 91/124/17
f 93/128/17 101/129/17 100/127/17 92/126/17
f 94/130/17 102/131/17 101/129/17 93/128/17
f 95/132/17 103/133/17 102/131/17 94/130/17
f 96/106/17 104/134/17 103/133/17 95/132/17
f 96/106/17 54/60/17 52/89/17 104/134/17
f 90/122/18 89/103/18 105/105/18 106/116/18
f 91/124/18 90/122/18 106/116/18 107/117/18
f 92/126/18 91/124/18 107/117/18 108/118/18
f 93/128/18 92/126/18 108/118/18 109/119/18
f 94/130/18 93/128/18 109/119/18 110/120/18
f 95/132/18 94/130/18 110/120/18 111/121/18
f 96/106/18 95/132/18 111/121/18 112/107/18
f 82/101/19 120/108/19 104/134/19 52/89/19
f 104/134/19 120/108/19 119/109/19 103/133/19
f 103/133/19 119/109/19 118/110/19 102/131/19
f 102/131/19 118/110/19 117/111/19 101/129/19
f 101/129/19 117/111/19 116/112/19 100/127/19
f 100/127/19 116/112/19 115/113/19 99/125/19
f 99/125/19 115/113/19 114/114/19 98/123/19
f 98/123/19 114/114/19 113/115/19 97/104/19
f 97/104/19 113/115/19 39/53/19 14/18/19
f 20/38/18 9/30/18 11/29/18 12/47/18 18/44/18 19/41/18
f 13/21/19 10/20/19 21/35/19 22/37/19 23/19/19 14/18/19
f 60/80/19 49/72/19 51/71/19 52/89/19 58/86/19 59/83/19
f 53/63/18 50/62/18 61/77/18 62/79/18 63/61/18 54/60/18
o Cube.002
v 23.363342 2.284410 13.127565
v 23.363342 -8.931276 13.127565
v 23.363342 2.284410 24.343252
v 23.363342 -8.931276 24.343252
v 12.147655 2.284410 13.127565
v 12.147655 -8.931276 13.127565
v 12.147655 2.284410 24.343252
v 12.147655 -8.931276 24.343252
v 22.699039 1.620109 13.307216
v 22.699039 -9.037003 13.307216
v 22.699039 1.620109 23.678951
v 22.699039 -9.037003 23.678951
v 12.811957 1.620109 13.307216
v 12.811957 -9.037003 13.307216
v 12.811957 1.620109 23.678951
v 12.811957 -9.037003 23.678951
v 23.363342 -6.060600 13.127565
v 23.363342 -6.477845 24.343252
v 12.147655 -6.477845 24.343252
v 12.147655 -6.060600 13.127565
v 22.699039 -6.288514 13.307216
v 22.699039 -6.288514 23.678951
v 12.811957 -6.288514 23.678951
v 12.811957 -6.288514 13.307216
v 23.363342 -0.018024 24.343252
v 12.147655 -0.018024 24.343252
v 12.147655 -0.018024 13.127565
v 22.699039 -0.567657 23.678951
v 12.811957 -0.567657 23.678951
v 12.811957 -0.567657 13.307216
v 23.363342 -0.018024 13.127565
v 22.699039 -0.567657 13.307216
v 22.699039 -6.288514 14.451617
v 12.811957 -6.288514 14.451617
v 22.699039 -0.567657 14.386122
v 12.811957 -0.567657 14.386122
vt 0.318974 0.393317
vt 0.316965 0.400965
vt 0.318689 0.401264
vt 0.319513 0.395651
vt 0.316085 0.409197
vt 0.318212 0.409408
vt 0.316916 0.418307
vt 0.318063 0.415555
vt 0.311413 0.400466
vt 0.171583 0.177954
vt 0.067963 0.735401
vt 0.309708 0.407892
vt 0.319972 0.393578
vt 0.319769 0.395703
vt 0.319269 0.401317
vt 0.321691 0.401263
vt 0.321809 0.393416
vt 0.318728 0.409412
vt 0.321325 0.409875
vt 0.318360 0.415543
vt 0.318184 0.418182
vt 0.320372 0.418762
vt 0.329668 0.400896
vt 0.330734 0.410506
vt 0.555871 0.923183
vt 0.555871 0.078808
vt 0.138371 0.821453
vt 0.000099 0.763568
vt 0.202455 0.879848
vt 0.319929 0.393546
vt 0.127305 0.149651
vt 0.240739 0.111000
vt 0.290422 0.074162
vt 0.318125 0.418213
vt 0.328260 0.410824
vt 0.323314 0.903872
vt 0.327007 0.400726
vt 0.378879 0.068241
vt 0.311410 0.408634
vt 0.313539 0.400377
vt 0.417695 0.000099
vt 0.361147 0.999901
vt 0.556069 0.224469
vt 0.758186 0.224470
vt 0.758186 0.202414
vt 0.556069 0.202414
vt 0.556069 0.269193
vt 0.758186 0.269193
vt 0.612255 0.202216
vt 0.612255 0.000099
vt 0.556069 0.000099
vt 0.556069 0.202216
vt 0.635649 0.202216
vt 0.635649 0.000099
vn 1.0000 0.0000 0.0000
vn 0.0000 0.0000 1.0000
vn -1.0000 0.0000 0.0000
vn 0.0000 1.0000 0.0000
vn 0.0000 0.0000 -1.0000
vn 0.0000 -1.0000 0.0000
vn 0.2611 0.0000 -0.9653
vn 0.0000 -0.9876 0.1572
vn -0.2611 0.0000 -0.9653
vn 0.0000 -0.2611 -0.9653
vn -0.1572 -0.9876 0.0000
vn 0.1572 -0.9876 0.0000
g Cube.002_Cube.002_Material.002
usemtl Material.002
s off
f 145/135/20 146/136/20 132/137/20 130/138/20
f 146/136/21 147/139/21 136/140/21 132/137/21
f 147/139/22 148/141/22 134/142/22 136/140/22
f 131/143/23 129/144/23 133/145/23 135/146/23
f 149/147/22 138/148/22 140/149/22 150/150/22 161/151/22
f 150/150/24 140/149/24 144/152/24 151/153/24
f 151/153/20 144/152/20 142/154/20 152/155/20 162/156/20
f 139/157/25 143/158/25 141/159/25 137/160/25
f 155/161/26 133/145/26 141/162/26 158/163/26
f 132/137/27 136/140/27 144/152/27 140/149/27
f 145/135/28 130/138/28 138/148/28 149/164/28
f 133/145/29 129/144/29 137/165/29 141/162/29
f 136/140/30 134/142/30 142/154/30 144/152/30
f 130/138/31 132/137/31 140/149/31 138/148/31
f 159/166/28 145/135/28 149/164/28 160/167/28
f 134/142/26 148/141/26 152/168/26 142/154/26
f 157/169/20 151/153/20 162/156/20 152/168/20 158/163/20 164/170/20
f 156/171/24 150/150/24 151/153/24 157/169/24
f 160/167/22 149/164/22 161/151/22 150/150/22 156/171/22 163/172/22
f 154/173/22 155/161/22 148/141/22 147/139/22
f 153/174/21 154/173/21 147/139/21 146/136/21
f 159/166/20 153/174/20 146/136/20 145/135/20
f 129/144/20 131/143/20 153/174/20 159/166/20
f 131/143/21 135/146/21 154/173/21 153/174/21
f 135/146/22 133/145/22 155/161/22 154/173/22
f 137/160/22 160/175/22 163/172/22 156/171/22 139/157/22
f 139/157/24 156/171/24 157/169/24 143/158/24
f 143/158/20 157/169/20 164/170/20 158/176/20 141/159/20
f 129/144/28 159/166/28 160/167/28 137/165/28
f 148/141/26 155/161/26 158/163/26 152/168/26
f 158/177/25 160/178/25 163/179/25 164/180/25
f 160/178/24 158/177/24 141/181/24 137/182/24
f 152/183/24 149/184/24 138/185/24 142/186/24
f 162/187/23 161/188/23 149/184/23 152/183/23
o Cube.003
v 7.822607 2.284410 -13.628418
v 7.822607 -8.931276 -13.628418
v 7.822605 2.284410 -24.844107
v 7.822605 -8.931276 -24.844107
v 19.038294 2.284410 -13.628420
v 19.038294 -8.931276 -13.628420
v 19.038292 2.284410 -24.844109
v 19.038292 -8.931276 -24.844109
v 8.486909 1.620109 -13.808069
v 8.486909 -9.037003 -13.808069
v 8.486907 1.620109 -24.179804
v 8.486907 -9.037003 -24.179804
v 18.373993 1.620109 -13.808071
v 18.373993 -9.037003 -13.808071
v 18.373989 1.620109 -24.179806
v 18.373989 -9.037003 -24.179806
v 7.822607 -6.060600 -13.628418
v 7.822605 -6.477845 -24.844107
v 19.038292 -6.477845 -24.844109
v 19.038294 -6.060600 -13.628420
v 8.486909 -6.288514 -13.808069
v 8.486907 -6.288514 -24.179804
v 18.373989 -6.288514 -24.179806
v 18.373993 -6.288514 -13.808071
v 7.822605 -0.018024 -24.844107
v 19.038292 -0.018024 -24.844109
v 19.038294 -0.018024 -13.628420
v 8.486907 -0.567657 -24.179804
v 18.373989 -0.567657 -24.179806
v 18.373993 -0.567657 -13.808071
v 7.822607 -0.018024 -13.628418
v 8.486909 -0.567657 -13.808069
v 8.486908 -6.288514 -14.952471
v 18.373991 -6.288514 -14.952473
v 8.486908 -0.567657 -14.886976
v 18.373991 -0.567657 -14.886978
vt 0.570312 0.000000
vt 0.570312 0.250000
vt 0.625000 0.250000
vt 0.625000 0.000000
vt 0.570312 0.500000
vt 0.625000 0.500000
vt 0.570312 0.750000
vt 0.625000 0.750000
vt 0.375000 0.250000
vt 0.375000 0.000000
vt 0.375000 0.750000
vt 0.375000 0.500000
vt 0.570312 0.000000
vt 0.625000 0.000000
vt 0.625000 0.250000
vt 0.570312 0.250000
vt 0.570312 0.125000
vt 0.625000 0.500000
vt 0.570312 0.500000
vt 0.625000 0.750000
vt 0.570312 0.750000
vt 0.570312 0.625000
vt 0.375000 0.250000
vt 0.375000 0.500000
vt 0.375000 0.750000
vt 0.375000 0.000000
vt 0.426322 0.750000
vt 0.426322 0.750000
vt 0.426322 0.000000
vt 0.426322 0.000000
vt 0.426322 0.500000
vt 0.426322 0.625000
vt 0.426322 0.250000
vt 0.426322 0.125000
vt 0.426322 0.500000
vt 0.426322 0.250000
vt 0.000000 0.000000
vt 0.000000 0.000000
vt 0.000000 0.000000
vt 0.000000 0.000000
vt 0.000000 0.000000
vt 0.000000 0.000000
vt 0.000000 0.000000
vt 0.000000 0.000000
vn -1.0000 0.0000 0.0000
vn -0.0000 0.0000 -1.0000
vn 1.0000 0.0000 -0.0000
vn 0.0000 1.0000 0.0000
vn 0.0000 0.0000 1.0000
vn 0.0000 -1.0000 0.0000
vn -0.2611 0.0000 0.9653
vn 0.0000 -0.9876 -0.1572
vn 0.2611 0.0000 0.9653
vn 0.0000 -0.2611 0.9653
vn 0.1572 -0.9876 -0.0000
vn -0.1572 -0.9876 0.0000
g Cube.003_Cube.003_None
usemtl None
s off
f 181/189/32 182/190/32 168/191/32 166/192/32
f 182/190/33 183/193/33 172/194/33 168/191/33
f 183/193/34 184/195/34 170/196/34 172/194/34
f 167/197/35 165/198/35 169/199/35 171/200/35
f 185/201/34 174/202/34 176/203/34 186/204/34 197/205/34
f 186/204/36 176/203/36 180/206/36 187/207/36
f 187/207/32 180/206/32 178/208/32 188/209/32 198/210/32
f 175/211/37 179/212/37 177/213/37 173/214/37
f 191/215/38 169/199/38 177/213/38 194/216/38
f 168/191/39 172/194/39 180/206/39 176/203/39
f 181/189/40 166/192/40 174/202/40 185/201/40
f 169/199/41 165/198/41 173/214/41 177/213/41
f 172/194/42 170/196/42 178/208/42 180/206/42
f 166/192/43 168/191/43 176/203/43 174/202/43
f 195/217/40 181/189/40 185/201/40 196/218/40
f 170/196/38 184/195/38 188/209/38 178/208/38
f 193/219/32 187/207/32 198/210/32 188/209/32 194/216/32 200/220/32
f 192/221/36 186/204/36 187/207/36 193/219/36
f 196/218/34 185/201/34 197/205/34 186/204/34 192/221/34 199/222/34
f 190/223/34 191/215/34 184/195/34 183/193/34
f 189/224/33 190/223/33 183/193/33 182/190/33
f 195/217/32 189/224/32 182/190/32 181/189/32
f 165/198/32 167/197/32 189/224/32 195/217/32
f 167/197/33 171/200/33 190/223/33 189/224/33
f 171/200/34 169/199/34 191/215/34 190/223/34
f 173/214/34 196/218/34 199/222/34 192/221/34 175/211/34
f 175/211/36 192/221/36 193/219/36 179/212/36
f 179/212/32 193/219/32 200/220/32 194/216/32 177/213/32
f 165/198/40 195/217/40 196/218/40 173/214/40
f 184/195/38 191/215/38 194/216/38 188/209/38
f 194/216/37 196/218/37 199/222/37 200/220/37
f 196/225/36 194/226/36 177/227/36 173/228/36
f 188/209/36 185/201/36 174/202/36 178/208/36
f 198/229/35 197/230/35 185/231/35 188/232/35
o Cube.004
v -17.143402 2.284410 -13.628418
v -17.143402 -8.931276 -13.628418
v -17.143404 2.284410 -24.844107
v -17.143404 -8.931276 -24.844107
v -5.927714 2.284410 -13.628420
v -5.927714 -8.931276 -13.628420
v -5.927716 2.284410 -24.844109
v -5.927716 -8.931276 -24.844109
v -16.479099 1.620109 -13.808069
v -16.479099 -9.037003 -13.808069
v -16.479101 1.620109 -24.179804
v -16.479101 -9.037003 -24.179804
v -6.592016 1.620109 -13.808071
v -6.592016 -9.037003 -13.808071
v -6.592018 1.620109 -24.179806
v -6.592018 -9.037003 -24.179806
v -17.143402 -6.060600 -13.628418
v -17.143404 -6.477845 -24.844107
v -5.927716 -6.477845 -24.844109
v -5.927714 -6.060600 -13.628420
v -16.479099 -6.288514 -13.808069
v -16.479101 -6.288514 -24.179804
v -6.592018 -6.288514 -24.179806
v -6.592016 -6.288514 -13.808071
v -17.143404 -0.018024 -24.844107
v -5.927716 -0.018024 -24.844109
v -5.927714 -0.018024 -13.628420
v -16.479101 -0.567657 -24.179804
v -6.592018 -0.567657 -24.179806
v -6.592016 -0.567657 -13.808071
v -17.143402 -0.018024 -13.628418
v -16.479099 -0.567657 -13.808069
v -16.479099 -6.288514 -14.952471
v -6.592017 -6.288514 -14.952473
v -16.479099 -0.567657 -14.886976
v -6.592017 -0.567657 -14.886978
vt 0.570312 0.000000
vt 0.570312 0.250000
vt 0.625000 0.250000
vt 0.625000 0.000000
vt 0.570312 0.500000
vt 0.625000 0.500000
vt 0.570312 0.750000
vt 0.625000 0.750000
vt 0.375000 0.250000
vt 0.375000 0.000000
vt 0.375000 0.750000
vt 0.375000 0.500000
vt 0.570312 0.000000
vt 0.625000 0.000000
vt 0.625000 0.250000
vt 0.570312 0.250000
vt 0.570312 0.125000
vt 0.625000 0.500000
vt 0.570312 0.500000
vt 0.625000 0.750000
vt 0.570312 0.750000
vt 0.570312 0.625000
vt 0.375000 0.250000
vt 0.375000 0.500000
vt 0.375000 0.750000
vt 0.375000 0.000000
vt 0.426322 0.750000
vt 0.426322 0.750000
vt 0.426322 0.000000
vt 0.426322 0.000000
vt 0.426322 0.500000
vt 0.426322 0.625000
vt 0.426322 0.250000
vt 0.426322 0.125000
vt 0.426322 0.500000
vt 0.426322 0.250000
vt 0.000000 0.000000
vt 0.000000 0.000000
vt 0.000000 0.000000
vt 0.000000 0.000000
vt 0.000000 0.000000
vt 0.000000 0.000000
vt 0.000000 0.000000
vt 0.000000 0.000000
vn -1.0000 0.0000 0.0000
vn -0.0000 0.0000 -1.0000
vn 1.0000 0.0000 -0.0000
vn 0.0000 1.0000 0.0000
vn 0.0000 0.0000 1.0000
vn 0.0000 -1.0000 0.0000
vn -0.2611 0.0000 0.9653
vn 0.0000 -0.9876 -0.1572
vn 0.2611 0.0000 0.9653
vn 0.0000 -0.2611 0.9653
vn 0.1572 -0.9876 -0.0000
vn -0.1572 -0.9876 0.0000
g Cube.004_Cube.004_None
usemtl None
s off
f 217/233/44 218/234/44 204/235/44 202/236/44
f 218/234/45 219/237/45 208/238/45 204/235/45
f 219/237/46 220/239/46 206/240/46 208/238/46
f 203/241/47 201/242/47 205/243/47 207/244/47
f 221/245/46 210/246/46 212/247/46 222/248/46 233/249/46
f 222/248/48 212/247/48 216/250/48 223/251/48
f 223/251/44 216/250/44 214/252/44 224/253/44 234/254/44
f 211/255/49 215/256/49 213/257/49 209/258/49
f 227/259/50 205/243/50 213/257/50 230/260/50
f 204/235/51 208/238/51 216/250/51 212/247/51
f 217/233/52 202/236/52 210/246/52 221/245/52
f 205/243/53 201/242/53 209/258/53 213/257/53
f 208/238/54 206/240/54 214/252/54 216/250/54
f 202/236/55 204/235/55 212/247/55 210/246/55
f 231/261/52 217/233/52 221/245/52 232/262/52
f 206/240/50 220/239/50 224/253/50 214/252/50
f 229/263/44 223/251/44 234/254/44 224/253/44 230/260/44 236/264/44
f 228/265/48 222/248/48 223/251/48 229/263/48
f 232/262/46 221/245/46 233/249/46 222/248/46 228/265/46 235/266/46
f 226/267/46 227/259/46 220/239/46 219/237/46
f 225/268/45 226/267/45 219/237/45 218/234/45
f 231/261/44 225/268/44 218/234/44 217/233/44
f 201/242/44 203/241/44 225/268/44 231/261/44
f 203/241/45 207/244/45 226/267/45 225/268/45
f 207/244/46 205/243/46 227/259/46 226/267/46
f 209/258/46 232/262/46 235/266/46 228/265/46 211/255/46
f 211/255/48 228/265/48 229/263/48 215/256/48
f 215/256/44 229/263/44 236/264/44 230/260/44 213/257/44
f 201/242/52 231/261/52 232/262/52 209/258/52
f 220/239/50 227/259/50 230/260/50 224/253/50
f 230/260/49 232/262/49 235/266/49 236/264/49
f 232/269/48 230/270/48 213/271/48 209/272/48
f 224/253/48 221/245/48 210/246/48 214/252/48
f 234/273/47 233/274/47 221/275/47 224/276/47
