# Blender v2.83.1 OBJ File: 'mlgglasses.blend'
# www.blender.org
mtllib mlgglasses.mtl
o Plane.001
v -1.816326 0.284964 -0.000405
v -0.014064 0.284964 0.000000
v -0.014064 0.056652 0.000000
v -0.014064 0.162307 0.000000
v -1.816326 0.162307 -0.000405
v -0.099401 0.284964 0.000000
v -0.099401 0.056652 0.000000
v -0.099401 -0.052903 -0.000000
v -0.099401 0.162307 0.000000
v -0.184101 0.284964 0.000000
v -0.184101 0.056652 0.000000
v -0.184101 -0.048691 -0.000000
v -0.184101 0.162307 0.000000
v -0.184101 -0.154857 -0.000000
v -0.713771 0.284964 0.000000
v -0.713771 0.056652 0.000000
v -0.713771 -0.048691 -0.000000
v -0.713771 0.162307 0.000000
v -0.713771 -0.154857 -0.000000
v -0.791648 0.284964 0.000000
v -0.791648 0.056652 0.000000
v -0.791648 -0.048691 -0.000000
v -0.791648 0.162307 0.000000
v -0.876754 0.284964 0.000000
v -0.876754 0.056652 0.000000
v -0.876754 0.162307 0.000000
v -1.039305 0.284964 0.000000
v -1.039305 0.056652 0.000000
v -1.039305 0.162307 0.000000
v -1.123871 0.284964 0.000000
v -1.123871 0.056652 0.000000
v -1.123871 -0.048844 -0.000000
v -1.123871 0.162307 0.000000
v -1.216154 0.284964 0.000000
v -1.216154 0.056652 0.000000
v -1.216154 -0.048844 -0.000000
v -1.216154 0.162307 0.000000
v -1.216154 -0.154677 -0.000000
v -1.463049 0.284964 0.000000
v -1.463049 0.056652 0.000000
v -1.463049 -0.048844 -0.000000
v -1.463049 0.162307 0.000000
v -1.463049 -0.154677 -0.000000
v -1.555246 0.284964 0.000000
v -1.555246 0.056652 0.000000
v -1.555246 -0.048844 -0.000000
v -1.555246 0.162307 0.000000
v -1.555246 -0.154677 -0.000000
v -1.640007 0.284964 0.000000
v -1.640007 0.056652 0.000000
v -1.640007 -0.048844 -0.000000
v -1.640007 0.162307 0.000000
v -1.731360 0.284964 0.000000
v -1.731360 0.056652 0.000000
v -1.731360 0.162307 0.000000
v 0.071504 0.284964 -0.000405
v 0.071504 0.162307 -0.000405
v -0.452550 -0.048691 -0.000000
v -0.452550 0.056652 0.000000
v -0.452550 0.284964 0.000000
v -0.452550 0.162307 0.000000
v -0.452550 -0.154857 -0.000000
v -0.537486 0.162307 0.000000
v -0.537486 0.284964 0.000000
v -0.537486 0.056652 0.000000
v -0.537486 -0.048691 -0.000000
v -0.537486 -0.154857 -0.000000
v -0.621912 0.162307 0.000000
v -0.621912 0.284964 0.000000
v -0.621912 0.056652 0.000000
v -0.621912 -0.048691 -0.000000
v -0.621912 -0.154857 -0.000000
v -1.816326 0.281370 -0.991201
v -1.816326 0.167482 -0.991201
v 0.071504 0.281370 -0.991201
v 0.071504 0.167482 -0.991201
v 0.071504 0.166885 -0.814869
v 0.071504 0.281785 -0.814870
v -1.816326 0.282548 -0.814869
v -1.816326 0.165787 -0.814869
v -1.816326 0.053503 -0.991201
v -1.816326 0.051808 -0.814869
v 0.071504 0.052954 -0.991199
v 0.071504 0.052357 -0.814869
v 0.071504 0.166885 -1.168107
v 0.071504 0.052357 -1.168137
v -1.816326 0.167482 -1.168139
v -1.816326 0.053503 -1.168139
v -1.377653 -0.154677 -0.000000
v -1.377653 0.284964 0.000000
v -1.377653 0.056652 0.000000
v -1.377653 -0.048844 -0.000000
v -1.377653 0.162307 0.000000
v -1.298530 -0.154677 -0.000000
v -1.298530 0.284964 0.000000
v -1.298530 0.056652 0.000000
v -1.298530 -0.048844 -0.000000
v -1.298530 0.162307 0.000000
v -0.364926 0.056652 0.000000
v -0.364926 0.162307 0.000000
v -0.364926 0.284964 0.000000
v -0.364926 -0.154857 -0.000000
v -0.364926 -0.048691 -0.000000
v -0.271069 0.056652 0.000000
v -0.271069 0.162307 0.000000
v -0.271069 0.284964 0.000000
v -0.271069 -0.154857 -0.000000
v -0.271069 -0.048691 -0.000000
vt 0.390076 0.048740
vt 0.381618 0.048740
vt 0.381618 0.000050
vt 0.390076 0.000050
vt 0.390076 0.090682
vt 0.381618 0.090682
vt 0.398470 0.090682
vt 0.398470 0.048740
vt 0.398470 0.132500
vt 0.390076 0.134172
vt 0.398470 0.000050
vt 0.458682 0.048740
vt 0.450964 0.048740
vt 0.450964 0.000050
vt 0.458682 0.000050
vt 0.458682 0.132500
vt 0.450964 0.132500
vt 0.450964 0.090682
vt 0.458682 0.090682
vt 0.467117 0.090682
vt 0.467117 0.048740
vt 0.467117 0.000050
vt 0.483227 0.048740
vt 0.483227 0.000050
vt 0.491608 0.090682
vt 0.483227 0.090682
vt 0.491608 0.048740
vt 0.491608 0.000050
vt 0.500754 0.048740
vt 0.500754 0.000050
vt 0.500754 0.132561
vt 0.491608 0.132561
vt 0.500754 0.090682
vt 0.511339 0.090682
vt 0.511339 0.048740
vt 0.511339 0.174573
vt 0.500754 0.174573
vt 0.511339 0.132561
vt 0.511339 0.000050
vt 0.534361 0.048740
vt 0.525223 0.048740
vt 0.525223 0.000050
vt 0.534361 0.000050
vt 0.534361 0.174573
vt 0.525223 0.174573
vt 0.525223 0.132561
vt 0.534361 0.132561
vt 0.534361 0.090682
vt 0.525223 0.090682
vt 0.542761 0.132561
vt 0.542761 0.090682
vt 0.542761 0.048740
vt 0.542761 0.000050
vt 0.551815 0.048740
vt 0.551815 0.000050
vt 0.551815 0.090682
vt 0.560237 0.048740
vt 0.560237 0.000050
vt 0.441860 0.000050
vt 0.441860 0.048740
vt 0.441860 0.090682
vt 0.441860 0.132500
vt 0.450964 0.174644
vt 0.441860 0.174644
vt 0.373136 0.048740
vt 0.373136 0.000050
vt 0.411773 0.132500
vt 0.425075 0.132500
vt 0.425075 0.174644
vt 0.411773 0.174644
vt 0.411773 0.048740
vt 0.425075 0.048740
vt 0.425075 0.090682
vt 0.411773 0.090682
vt 0.411773 0.000050
vt 0.425075 0.000050
vt 0.433493 0.132500
vt 0.433493 0.174644
vt 0.433493 0.090682
vt 0.433493 0.000050
vt 0.433493 0.048740
vt 0.066447 0.001312
vt 0.066448 0.046923
vt 0.000050 0.046686
vt 0.000050 0.001476
vt 0.866926 0.047359
vt 0.866926 0.001009
vt 0.933324 0.001476
vt 0.933324 0.046686
vt 0.933324 0.091932
vt 0.866926 0.092605
vt 0.000000 0.000000
vt 0.000000 0.000000
vt 0.000000 0.000000
vt 0.000000 0.000000
vt 0.999951 0.046686
vt 0.999951 0.091932
vt 0.518991 0.048740
vt 0.518991 0.000050
vt 0.518991 0.132561
vt 0.518991 0.090682
vt 0.518990 0.174573
vt 0.405121 0.000050
vt 0.405121 0.048740
vt 0.405121 0.090682
vt 0.405121 0.132500
vt 0.405121 0.174644
vt 0.398470 0.174644
vt 0.000000 0.000000
vn 0.0000 -0.0000 1.0000
vn -0.0048 -0.0000 1.0000
vn 0.0047 -0.0000 1.0000
vn 1.0000 0.0000 0.0000
vn -1.0000 0.0000 0.0000
usemtl Material.002
s off
f 9/1/1 4/2/1 2/3/1 6/4/1
f 7/5/1 3/6/1 4/2/1 9/1/1
f 11/7/1 7/5/1 9/1/1 13/8/1
f 12/9/1 8/10/1 7/5/1 11/7/1
f 13/8/1 9/1/1 6/4/1 10/11/1
f 23/12/1 18/13/1 15/14/1 20/15/1
f 22/16/1 17/17/1 16/18/1 21/19/1
f 21/19/1 16/18/1 18/13/1 23/12/1
f 25/20/1 21/19/1 23/12/1 26/21/1
f 26/21/1 23/12/1 20/15/1 24/22/1
f 29/23/1 26/21/1 24/22/1 27/24/1
f 31/25/1 28/26/1 29/23/1 33/27/1
f 33/27/1 29/23/1 27/24/1 30/28/1
f 37/29/1 33/27/1 30/28/1 34/30/1
f 36/31/1 32/32/1 31/25/1 35/33/1
f 35/33/1 31/25/1 33/27/1 37/29/1
f 96/34/1 35/33/1 37/29/1 98/35/1
f 94/36/1 38/37/1 36/31/1 97/38/1
f 97/38/1 36/31/1 35/33/1 96/34/1
f 98/35/1 37/29/1 34/30/1 95/39/1
f 47/40/1 42/41/1 39/42/1 44/43/1
f 48/44/1 43/45/1 41/46/1 46/47/1
f 45/48/1 40/49/1 42/41/1 47/40/1
f 51/50/1 46/47/1 45/48/1 50/51/1
f 52/52/1 47/40/1 44/43/1 49/53/1
f 55/54/1 52/52/1 49/53/1 53/55/1
f 54/56/1 50/51/1 52/52/1 55/54/1
f 5/57/2 55/54/2 53/55/2 1/58/2
f 69/59/1 15/14/1 18/13/1 68/60/1
f 70/61/1 16/18/1 17/17/1 71/62/1
f 71/62/1 17/17/1 19/63/1 72/64/1
f 2/3/3 4/2/3 57/65/3 56/66/3
f 103/67/1 58/68/1 62/69/1 102/70/1
f 100/71/1 61/72/1 59/73/1 99/74/1
f 101/75/1 60/76/1 61/72/1 100/71/1
f 58/68/1 66/77/1 67/78/1 62/69/1
f 59/73/1 65/79/1 66/77/1 58/68/1
f 60/76/1 64/80/1 63/81/1 61/72/1
f 66/77/1 71/62/1 72/64/1 67/78/1
f 63/81/1 68/60/1 70/61/1 65/79/1
f 64/80/1 69/59/1 68/60/1 63/81/1
f 78/82/4 77/83/4 76/84/4 75/85/4
f 80/86/5 79/87/5 73/88/5 74/89/5
f 56/66/4 57/65/4 77/83/4 78/82/4
f 5/57/5 1/58/5 79/87/5 80/86/5
f 80/86/5 74/89/5 81/90/5 82/91/5
f 86/92/4 85/93/4 76/94/4 83/95/4
f 81/90/5 74/89/5 87/96/5 88/97/5
f 42/41/1 93/98/1 90/99/1 39/42/1
f 41/46/1 92/100/1 91/101/1 40/49/1
f 43/45/1 89/102/1 92/100/1 41/46/1
f 93/98/1 98/35/1 95/39/1 90/99/1
f 89/102/1 94/36/1 97/38/1 92/100/1
f 91/101/1 96/34/1 98/35/1 93/98/1
f 106/103/1 101/75/1 100/71/1 105/104/1
f 105/104/1 100/71/1 99/74/1 104/105/1
f 104/105/1 99/74/1 103/67/1 108/106/1
f 108/106/1 103/67/1 102/70/1 107/107/1
f 12/9/1 108/106/1 107/107/1 14/108/1
f 11/7/1 104/105/1 108/106/1 12/9/1
f 13/8/1 105/104/1 104/105/1 11/7/1
f 10/11/1 106/103/1 105/104/1 13/8/1
f 83/95/4 76/94/4 77/83/4 84/109/4
usemtl Material.003
f 46/47/1 41/46/1 40/49/1 45/48/1
f 50/51/1 45/48/1 47/40/1 52/52/1
f 68/60/1 18/13/1 16/18/1 70/61/1
f 99/74/1 59/73/1 58/68/1 103/67/1
f 61/72/1 63/81/1 65/79/1 59/73/1
f 65/79/1 70/61/1 71/62/1 66/77/1
f 40/49/1 91/101/1 93/98/1 42/41/1
f 92/100/1 97/38/1 96/34/1 91/101/1
