# Blender v2.83.1 OBJ File: ''
# www.blender.org
mtllib ramp.mtl
o Cube_Cube.001
v -0.900314 -3.548960 0.900314
v -0.900314 -1.748333 0.900314
v -0.900314 -3.548960 -0.900314
v -0.900314 -1.748333 -0.900314
v 0.900314 -3.548960 0.900314
v 0.900314 -1.748333 0.900314
v 0.900314 -3.548960 -0.900314
v 0.900314 -1.748333 -0.900314
v 2.700941 -3.548960 0.900314
v 2.700941 -1.748333 0.900314
v 2.700941 -3.548960 -0.900314
v 2.700941 -1.748333 -0.900314
v -0.900314 -3.548960 2.700941
v -0.900314 -1.748333 2.700941
v 0.900314 -3.548960 2.700941
v 0.900314 -1.748333 2.700941
v 2.700941 -3.548960 2.700941
v 2.700941 -1.748333 2.700941
v -0.900314 -3.548960 4.501568
v -0.900314 -1.748333 4.501568
v 0.900314 -3.548960 4.501568
v 0.900314 -1.748333 4.501568
v 2.700941 -3.548960 4.501568
v 2.700941 -1.748333 4.501568
v 4.501568 -3.548960 0.900314
v 4.501568 -1.748333 0.900314
v 4.501568 -3.548960 -0.900314
v 4.501568 -1.748333 -0.900314
v 4.501568 -3.548960 2.700941
v 4.501568 -1.748333 2.700941
v 4.501568 -3.548960 4.501568
v 4.501568 -1.748333 4.501568
v 7.213416 -3.307944 0.900314
v 6.124347 -1.628963 0.900314
v 7.213416 -3.307944 -0.900314
v 6.124347 -1.628963 -0.900314
v 7.213416 -3.307944 2.700941
v 6.124347 -1.628963 2.700941
v 7.213416 -3.307944 4.501568
v 6.124347 -1.628963 4.501568
v 9.903893 -2.145487 0.900314
v 7.631677 -0.327778 0.900314
v 9.903893 -2.145487 -0.900314
v 7.631677 -0.327778 -0.900314
v 9.903893 -2.145487 2.700941
v 7.631677 -0.327778 2.700941
v 9.903893 -2.145487 4.501568
v 7.631677 -0.327778 4.501568
v 10.634290 4.106850 0.900314
v 8.894075 1.741745 0.900314
v 10.634290 4.106850 -0.900314
v 8.894075 1.741745 -0.900314
v 10.634290 4.106850 2.700941
v 8.894075 1.741745 2.700941
v 10.634290 4.106850 4.501568
v 8.894075 1.741745 4.501568
vt 0.375000 0.000000
vt 0.625000 0.000000
vt 0.625000 0.250000
vt 0.375000 0.250000
vt 0.625000 0.500000
vt 0.375000 0.500000
vt 0.625000 0.750000
vt 0.625000 0.750000
vt 0.625000 0.500000
vt 0.125000 0.750000
vt 0.375000 0.750000
vt 0.375000 0.750000
vt 0.125000 0.750000
vt 0.125000 0.500000
vt 0.875000 0.500000
vt 0.875000 0.750000
vt 0.375000 0.500000
vt 0.625000 0.500000
vt 0.375000 0.500000
vt 0.375000 0.000000
vt 0.625000 0.000000
vt 0.375000 0.750000
vt 0.625000 0.750000
vt 0.875000 0.750000
vt 0.875000 0.750000
vt 0.625000 0.750000
vt 0.625000 0.750000
vt 0.625000 0.750000
vt 0.375000 0.750000
vt 0.625000 0.750000
vt 0.375000 0.750000
vt 0.625000 1.000000
vt 0.375000 1.000000
vt 0.375000 0.750000
vt 0.375000 0.750000
vt 0.625000 0.750000
vt 0.125000 0.750000
vt 0.375000 0.000000
vt 0.625000 0.000000
vt 0.625000 0.750000
vt 0.625000 0.750000
vt 0.625000 0.750000
vt 0.625000 0.750000
vt 0.375000 0.750000
vt 0.375000 0.500000
vt 0.375000 0.750000
vt 0.375000 0.750000
vt 0.375000 0.750000
vt 0.375000 0.750000
vt 0.375000 0.750000
vt 0.375000 0.750000
vt 0.375000 0.750000
vt 0.625000 0.750000
vt 0.625000 0.500000
vt 0.375000 0.750000
vt 0.375000 0.750000
vt 0.375000 0.500000
vt 0.625000 0.500000
vt 0.625000 0.500000
vt 0.375000 0.500000
vt 0.625000 0.750000
vt 0.625000 0.750000
vt 0.625000 0.750000
vt 0.375000 0.750000
vt 0.625000 0.750000
vt 0.625000 0.750000
vn -0.7071 -0.7071 0.0000
vn -0.7071 0.7071 0.0000
vn -0.5773 0.5773 -0.5773
vn -0.5773 -0.5773 -0.5773
vn 0.0000 0.7071 -0.7071
vn 0.0000 -0.7071 -0.7071
vn 0.0000 1.0000 0.0000
vn 0.0000 -1.0000 0.0000
vn -0.0256 0.6982 -0.7154
vn 0.0317 -0.7161 -0.6973
vn -0.5773 0.5773 0.5773
vn 0.0000 0.7071 0.7071
vn -0.0367 0.9993 0.0000
vn 0.0000 -0.7071 0.7071
vn -0.5773 -0.5773 0.5773
vn 0.0317 -0.7161 0.6973
vn -0.0256 0.6982 0.7154
vn -0.3827 0.9238 0.0000
vn -0.2371 0.5723 0.7850
vn 0.0443 -0.9990 0.0000
vn 0.1817 -0.7169 -0.6730
vn 0.2457 -0.9693 0.0000
vn 0.8023 -0.5969 0.0000
vn 0.1817 -0.7169 0.6730
vn 0.6357 -0.4729 0.6100
vn -0.5099 0.4323 0.7437
vn -0.2371 0.5723 -0.7850
vn 0.3666 0.9304 0.0000
vn 0.3082 0.7823 0.5413
vn 0.6357 -0.4729 -0.6100
vn -0.5099 0.4323 -0.7437
vn -0.5950 0.3993 -0.6975
vn 0.3082 0.7823 -0.5413
vn -0.7627 0.6467 0.0000
vn -0.8303 0.5572 0.0000
vn -0.5950 0.3993 0.6975
usemtl None
s 1
f 1/1/1 2/2/2 4/3/3 3/4/4
f 3/4/4 4/3/3 8/5/5 7/6/6
f 8/5/5 6/7/7 10/8/7 12/9/5
f 1/10/1 5/11/8 15/12/8 13/13/1
f 3/14/4 7/6/6 5/11/8 1/10/1
f 8/5/5 4/15/3 2/16/2 6/7/7
f 11/17/6 12/9/5 28/18/9 27/19/10
f 7/6/6 8/5/5 12/9/5 11/17/6
f 2/2/2 1/1/1 13/20/1 14/21/2
f 5/11/8 7/6/6 11/17/6 9/22/8
f 16/23/7 14/24/2 20/25/11 22/26/12
f 18/27/7 16/23/7 22/26/12 24/28/12
f 5/11/8 9/22/8 17/29/8 15/12/8
f 12/9/5 10/8/7 26/30/13 28/18/9
f 6/7/7 2/16/2 14/24/2 16/23/7
f 10/8/7 6/7/7 16/23/7 18/27/7
f 21/31/14 22/26/12 20/32/11 19/33/15
f 22/26/12 21/31/14 23/34/14 24/28/12
f 15/12/8 17/29/8 23/34/14 21/31/14
f 24/28/12 23/34/14 31/35/16 32/36/17
f 13/13/1 15/12/8 21/31/14 19/37/15
f 14/21/2 13/20/1 19/38/15 20/39/11
f 26/30/13 30/40/13 38/41/18 34/42/18
f 30/40/13 32/36/17 40/43/19 38/41/18
f 25/44/20 27/19/10 35/45/21 33/46/22
f 23/34/14 17/29/8 29/47/20 31/35/16
f 10/8/7 18/27/7 30/40/13 26/30/13
f 18/27/7 24/28/12 32/36/17 30/40/13
f 9/22/8 11/17/6 27/19/10 25/44/20
f 17/29/8 9/22/8 25/44/20 29/47/20
f 37/48/22 33/46/22 41/49/23 45/50/23
f 40/43/19 39/51/24 47/52/25 48/53/26
f 39/51/24 37/48/22 45/50/23 47/52/25
f 28/18/9 26/30/13 34/42/18 36/54/27
f 27/19/10 28/18/9 36/54/27 35/45/21
f 31/35/16 29/47/20 37/48/22 39/51/24
f 32/36/17 31/35/16 39/51/24 40/43/19
f 29/47/20 25/44/20 33/46/22 37/48/22
f 47/52/25 45/50/23 53/55/28 55/56/29
f 43/57/30 44/58/31 52/59/32 51/60/33
f 44/58/31 42/61/34 50/62/35 52/59/32
f 33/46/22 35/45/21 43/57/30 41/49/23
f 38/41/18 40/43/19 48/53/26 46/63/34
f 34/42/18 38/41/18 46/63/34 42/61/34
f 36/54/27 34/42/18 42/61/34 44/58/31
f 35/45/21 36/54/27 44/58/31 43/57/30
f 51/60/33 52/59/32 50/62/35 49/64/28
f 49/64/28 50/62/35 54/65/35 53/55/28
f 53/55/28 54/65/35 56/66/36 55/56/29
f 48/53/26 47/52/25 55/56/29 56/66/36
f 45/50/23 41/49/23 49/64/28 53/55/28
f 41/49/23 43/57/30 51/60/33 49/64/28
f 46/63/34 48/53/26 56/66/36 54/65/35
f 42/61/34 46/63/34 54/65/35 50/62/35
