# Blender v2.83.1 OBJ File: 'terrain test.blend'
# www.blender.org
mtllib terrainTest.mtl
o Plane
v -7.086854 0.000000 7.086854
v 7.086854 0.000000 7.086854
v -7.086854 0.000000 -7.086854
v 7.086854 0.000000 -7.086854
v -7.086854 0.000000 0.000000
v 0.000000 0.000000 7.086854
v 7.086854 0.000000 0.000000
v 0.000000 0.000000 -7.086854
v 0.000000 0.000000 0.000000
v -7.086854 0.000000 7.086854
v 7.086854 0.000000 7.086854
v -7.086854 0.000000 -7.086854
v 7.086854 0.000000 -7.086854
v -7.086854 0.000000 0.000000
v 0.000000 0.000000 7.086854
v 7.086854 0.000000 0.000000
v 0.000000 0.000000 -7.086854
v 0.000000 0.000000 0.000000
v -7.086854 0.000000 3.543427
v 3.543427 0.000000 7.086854
v 7.086854 0.000000 -3.543427
v -3.543427 0.000000 -7.086854
v -7.086854 0.000000 -3.543427
v -3.543427 0.000000 7.086854
v 7.086854 0.000000 3.543427
v 3.543427 0.000000 -7.086854
v 0.000000 0.000000 -3.543427
v 0.000000 0.000000 3.543427
v -3.543427 0.000000 0.000000
v 3.543427 0.000000 0.000000
v -7.086854 0.000000 7.086854
v 7.086854 0.000000 7.086854
v -7.086854 0.000000 -7.086854
v 7.086854 0.000000 -7.086854
v -7.086854 0.000000 0.000000
v 0.000000 0.000000 7.086854
v 7.086854 0.000000 0.000000
v 0.000000 0.000000 -7.086854
v 0.000000 0.000000 0.000000
v 3.543427 0.000000 3.543427
v -7.086854 0.000000 3.543427
v -3.543427 0.000000 -3.543427
v 3.543427 0.000000 -3.543427
v -7.086854 0.000000 5.315141
v 5.315141 0.000000 7.086854
v 7.086854 0.000000 -5.315141
v -5.315141 0.000000 -7.086854
v -7.086854 0.000000 -1.771714
v -1.771714 0.000000 7.086854
v 7.086854 0.000000 1.771714
v 1.771714 0.000000 -7.086854
v 0.000000 0.000000 -5.315141
v 0.000000 0.000000 1.771714
v -5.315141 0.000000 0.000000
v 1.771714 0.000000 0.000000
v -7.086854 0.000000 7.086854
v 7.086854 0.000000 7.086854
v -7.086854 0.000000 -7.086854
v 7.086854 0.000000 -7.086854
v -7.086854 0.000000 0.000000
v 0.000000 0.000000 7.086854
v 7.086854 0.000000 0.000000
v 0.000000 0.000000 -7.086854
v 0.000000 0.000000 0.000000
v -7.086854 0.000000 1.771714
v 1.771714 0.000000 7.086854
v 7.086854 0.000000 -1.771714
v -1.771714 0.000000 -7.086854
v -7.086854 0.000000 -5.315141
v -5.315141 0.000000 7.086854
v 7.086854 0.000000 5.315141
v 5.315141 0.000000 -7.086854
v 0.000000 0.000000 -1.771714
v 0.000000 0.000000 5.315141
v -1.771714 0.000000 0.000000
v 5.315141 0.000000 0.000000
v -7.086854 0.000000 7.086854
v 7.086854 0.000000 7.086854
v -7.086854 0.000000 -7.086854
v 7.086854 0.000000 -7.086854
v -7.086854 0.000000 0.000000
v 0.000000 0.000000 7.086854
v 7.086854 0.000000 0.000000
v 0.000000 0.000000 -7.086854
v 0.000000 0.000000 0.000000
v 3.543427 0.000000 1.771714
v 3.543427 0.000000 5.315141
v 1.771714 0.000000 3.543427
v 5.315141 0.000000 3.543427
v -3.543427 0.000000 1.771714
v -3.543427 0.000000 5.315141
v -5.315141 0.000000 3.543427
v -1.771714 0.000000 3.543427
v -3.543427 0.000000 -5.315141
v -3.543427 0.000000 -1.771714
v -5.315141 0.000000 -3.543427
v -1.771714 0.000000 -3.543427
v 3.543427 0.000000 -5.315141
v 3.543427 0.000000 -1.771714
v 1.771714 0.000000 -3.543427
v 5.315141 0.000000 -3.543427
v 5.315141 0.000000 -1.771714
v 1.771714 0.000000 -1.771714
v 1.771714 0.000000 -5.315141
v -1.771714 0.000000 -1.771714
v -5.315141 0.000000 -1.771714
v -5.315141 0.000000 -5.315141
v -1.771714 0.000000 5.315141
v -5.315141 0.000000 5.315141
v -5.315141 0.000000 1.771714
v 5.315141 0.000000 5.315141
v 1.771714 0.000000 5.315141
v 1.771714 0.000000 1.771714
v 5.315141 0.000000 1.771714
v -1.771714 0.000000 1.771714
v -1.771714 0.000000 -5.315141
v 5.315141 0.000000 -5.315141
v -3.543427 7.086854 3.543427
v -3.543427 7.086854 1.771714
v -3.543427 7.086854 5.315141
v -5.315141 7.086854 3.543427
v -1.771714 7.086854 3.543427
v -1.771714 7.086854 5.315141
v -5.315141 7.086854 5.315141
v -5.315141 7.086854 1.771714
v -1.771714 7.086854 1.771714
v -7.086854 0.000000 -3.543427
v -7.086854 0.000000 5.315141
v -7.086854 0.000000 -1.771714
v -7.086854 0.000000 1.771714
v -7.086854 0.000000 -5.315141
v -7.086854 0.000000 7.086854
v -7.086854 0.000000 -7.086854
v -7.086854 0.000000 0.000000
v -16.773407 2.182434 3.543427
v -16.773407 2.182434 -3.543427
v -16.773407 2.182434 5.315141
v -16.773407 2.182434 -1.771714
v -16.773407 2.182434 1.771714
v -16.773407 2.182434 -5.315141
v -16.773407 2.182434 7.086854
v -16.773407 2.182434 -7.086854
v -16.773407 2.182434 0.000000
vt 0.875000 0.875000
vt 1.000000 0.875000
vt 1.000000 1.000000
vt 0.875000 1.000000
vt 0.375000 0.875000
vt 0.500000 0.875000
vt 0.500000 1.000000
vt 0.375000 1.000000
vt 0.375000 0.375000
vt 0.500000 0.375000
vt 0.500000 0.500000
vt 0.375000 0.500000
vt 0.875000 0.375000
vt 1.000000 0.375000
vt 1.000000 0.500000
vt 0.875000 0.500000
vt 0.625000 0.375000
vt 0.750000 0.375000
vt 0.750000 0.500000
vt 0.625000 0.500000
vt 0.625000 0.125000
vt 0.750000 0.125000
vt 0.750000 0.250000
vt 0.625000 0.250000
vt 0.875000 0.125000
vt 1.000000 0.125000
vt 1.000000 0.250000
vt 0.875000 0.250000
vt 0.125000 0.375000
vt 0.250000 0.375000
vt 0.250000 0.500000
vt 0.125000 0.500000
vt 0.125000 0.375000
vt 0.250000 0.375000
vt 0.375000 0.125000
vt 0.500000 0.125000
vt 0.500000 0.250000
vt 0.375000 0.250000
vt 0.125000 0.875000
vt 0.250000 0.875000
vt 0.250000 1.000000
vt 0.125000 1.000000
vt 0.125000 0.625000
vt 0.250000 0.625000
vt 0.250000 0.750000
vt 0.125000 0.750000
vt 0.375000 0.625000
vt 0.500000 0.625000
vt 0.500000 0.750000
vt 0.375000 0.750000
vt 0.625000 0.875000
vt 0.750000 0.875000
vt 0.750000 1.000000
vt 0.625000 1.000000
vt 0.625000 0.625000
vt 0.750000 0.625000
vt 0.750000 0.750000
vt 0.625000 0.750000
vt 0.875000 0.625000
vt 1.000000 0.625000
vt 1.000000 0.750000
vt 0.875000 0.750000
vt 0.000000 0.625000
vt 0.000000 0.750000
vt 0.000000 0.500000
vt 0.000000 0.875000
vt 0.000000 1.000000
vt 0.250000 0.125000
vt 0.375000 0.125000
vt 0.250000 0.125000
vt 0.250000 0.000000
vt 0.375000 0.000000
vt 0.500000 0.000000
vt 0.000000 0.125000
vt 0.125000 0.125000
vt 0.125000 0.250000
vt 0.000000 0.250000
vt 0.000000 0.000000
vt 0.125000 0.000000
vt 0.000000 0.375000
vt 0.125000 0.125000
vt 0.125000 0.250000
vt 0.750000 0.000000
vt 0.875000 0.000000
vt 1.000000 0.000000
vt 0.625000 0.000000
vt 0.375000 0.375000
vt 0.250000 0.250000
vt 0.375000 0.250000
vt 0.000000 0.750000
vt 0.000000 0.625000
vt 0.000000 0.875000
vt 0.000000 0.250000
vt 0.000000 0.125000
vt 0.000000 0.375000
vt 0.000000 0.000000
vt 0.000000 0.000000
vt 0.000000 0.000000
vt 0.000000 0.000000
vt 0.000000 0.000000
vt 0.000000 0.000000
vt 0.000000 0.000000
vt 0.000000 0.000000
vt 0.000000 0.750000
vt 0.000000 0.625000
vt 0.000000 0.875000
vt 0.000000 0.000000
vt 0.000000 0.000000
vt 0.000000 0.000000
vt 0.000000 0.000000
vt 0.000000 0.000000
vt 0.000000 0.000000
vt 0.000000 0.250000
vt 0.000000 0.125000
vt 0.000000 0.375000
vn 0.0000 1.0000 0.0000
vn 0.0000 0.0000 -1.0000
vn 0.0000 0.0000 1.0000
vn -1.0000 0.0000 0.0000
vn 1.0000 0.0000 0.0000
vn 0.2198 0.9755 0.0000
usemtl None
s off
f 117/1/1 46/2/1 4/3/1 72/4/1
f 116/5/1 52/6/1 8/7/1 68/8/1
f 115/9/1 53/10/1 9/11/1 75/12/1
f 114/13/1 50/14/1 7/15/1 76/16/1
f 113/17/1 86/18/1 30/19/1 55/20/1
f 112/21/1 87/22/1 40/23/1 88/24/1
f 111/25/1 71/26/1 25/27/1 89/28/1
f 110/29/1 90/30/1 29/31/1 54/32/1
f 90/30/2 110/29/2 125/33/2 119/34/2
f 108/35/1 74/36/1 28/37/1 93/38/1
f 107/39/1 94/40/1 22/41/1 47/42/1
f 106/43/1 95/44/1 42/45/1 96/46/1
f 105/47/1 73/48/1 27/49/1 97/50/1
f 104/51/1 98/52/1 26/53/1 51/54/1
f 103/55/1 99/56/1 43/57/1 100/58/1
f 102/59/1 67/60/1 21/61/1 101/62/1
f 99/56/1 102/59/1 101/62/1 43/57/1
f 30/19/1 76/16/1 102/59/1 99/56/1
f 76/16/1 7/15/1 67/60/1 102/59/1
f 73/48/1 103/55/1 100/58/1 27/49/1
f 9/11/1 55/20/1 103/55/1 73/48/1
f 55/20/1 30/19/1 99/56/1 103/55/1
f 52/6/1 104/51/1 51/54/1 8/7/1
f 27/49/1 100/58/1 104/51/1 52/6/1
f 100/58/1 43/57/1 98/52/1 104/51/1
f 95/44/1 105/47/1 97/50/1 42/45/1
f 29/31/1 75/12/1 105/47/1 95/44/1
f 75/12/1 9/11/1 73/48/1 105/47/1
f 48/63/1 106/43/1 96/46/1 23/64/1
f 5/65/1 54/32/1 106/43/1 48/63/1
f 54/32/1 29/31/1 95/44/1 106/43/1
f 69/66/1 107/39/1 47/42/1 3/67/1
f 23/64/1 96/46/1 107/39/1 69/66/1
f 96/46/1 42/45/1 94/40/1 107/39/1
f 91/68/3 108/35/3 123/69/3 120/70/3
f 24/71/1 49/72/1 108/35/1 91/68/1
f 49/72/1 6/73/1 74/36/1 108/35/1
f 44/74/1 109/75/1 92/76/1 19/77/1
f 1/78/1 70/79/1 109/75/1 44/74/1
f 70/79/1 24/71/1 91/68/1 109/75/1
f 65/80/1 110/29/1 54/32/1 5/65/1
f 19/77/1 92/76/1 110/29/1 65/80/1
f 92/76/4 109/75/4 124/81/4 121/82/4
f 87/22/1 111/25/1 89/28/1 40/23/1
f 20/83/1 45/84/1 111/25/1 87/22/1
f 45/84/1 2/85/1 71/26/1 111/25/1
f 74/36/1 112/21/1 88/24/1 28/37/1
f 6/73/1 66/86/1 112/21/1 74/36/1
f 66/86/1 20/83/1 87/22/1 112/21/1
f 53/10/1 113/17/1 55/20/1 9/11/1
f 28/37/1 88/24/1 113/17/1 53/10/1
f 88/24/1 40/23/1 86/18/1 113/17/1
f 86/18/1 114/13/1 76/16/1 30/19/1
f 40/23/1 89/28/1 114/13/1 86/18/1
f 89/28/1 25/27/1 50/14/1 114/13/1
f 90/30/1 115/9/1 75/12/1 29/31/1
f 115/9/2 90/30/2 119/34/2 126/87/2
f 93/38/1 28/37/1 53/10/1 115/9/1
f 94/40/1 116/5/1 68/8/1 22/41/1
f 42/45/1 97/50/1 116/5/1 94/40/1
f 97/50/1 27/49/1 52/6/1 116/5/1
f 98/52/1 117/1/1 72/4/1 26/53/1
f 43/57/1 101/62/1 117/1/1 98/52/1
f 101/62/1 21/61/1 46/2/1 117/1/1
f 124/81/1 120/70/1 118/88/1 121/82/1
f 120/70/1 123/69/1 122/89/1 118/88/1
f 121/82/1 118/88/1 119/34/1 125/33/1
f 118/88/1 122/89/1 126/87/1 119/34/1
f 108/35/5 93/38/5 122/89/5 123/69/5
f 110/29/4 92/76/4 121/82/4 125/33/4
f 93/38/5 115/9/5 126/87/5 122/89/5
f 109/75/3 91/68/3 120/70/3 124/81/3
f 48/63/3 23/64/3 127/90/3 129/91/3
f 23/64/3 69/66/3 131/92/3 127/90/3
f 44/74/3 19/77/3 41/93/3 128/94/3
f 19/77/3 65/80/3 130/95/3 41/93/3
f 131/96/6 133/97/6 142/98/6 140/99/6
f 130/100/6 134/101/6 143/102/6 139/103/6
f 129/91/6 127/90/6 136/104/6 138/105/6
f 127/90/6 131/92/6 140/106/6 136/104/6
f 129/107/6 138/108/6 143/102/6 134/101/6
f 128/109/6 137/110/6 141/111/6 132/112/6
f 128/94/6 41/93/6 135/113/6 137/114/6
f 41/93/6 130/95/6 139/115/6 135/113/6
l 56 10
l 57 11
l 58 12
l 59 13
l 60 14
l 61 15
l 62 16
l 63 17
l 64 18
l 77 31
l 78 32
l 79 33
l 80 34
l 81 35
l 82 36
l 83 37
l 84 38
l 85 39
l 31 56
l 32 57
l 33 58
l 34 59
l 35 60
l 36 61
l 37 62
l 38 63
l 39 64
l 1 77
l 2 78
l 3 79
l 4 80
l 5 81
l 6 82
l 7 83
l 8 84
l 9 85
l 79 133
l 81 134
l 77 132
